<svg width="135" height="52" viewBox="0 0 135 52" fill="none" xmlns="http://www.w3.org/2000/svg">
<path d="M67.8978 48.2191C67.8457 48.2191 67.7936 48.1974 67.7588 48.154C67.698 48.0801 67.7067 47.9715 67.7719 47.9064L89.6861 26.6264L81.8413 16.4316C81.7978 16.3751 81.7935 16.3013 81.8239 16.2405C81.8543 16.1797 81.9194 16.1406 81.9889 16.1406H90.0162C90.077 16.1406 90.1335 16.171 90.1639 16.2188L94.4815 22.4781L115.827 6.48445C115.857 6.46273 115.896 6.44971 115.935 6.44971H130.018C130.1 6.44971 130.17 6.50183 130.191 6.58001C130.213 6.6582 130.183 6.74073 130.113 6.78417C129.809 6.97964 99.7853 26.3918 94.8377 29.6583C89.8902 32.9248 68.2193 48.0367 68.0021 48.1887C67.9717 48.2104 67.9326 48.2235 67.8978 48.2235" fill="#F8F9FA"/>
<path d="M107.56 39.084H99.4853C99.4289 39.084 99.3724 39.058 99.3376 39.0102L93.656 31.4303C93.6256 31.3912 93.6126 31.3391 93.6213 31.2914C93.63 31.2436 93.6604 31.1958 93.6995 31.1697L99.2899 27.4558C99.3681 27.4037 99.4767 27.4211 99.5375 27.4993L107.704 38.793C107.743 38.8495 107.751 38.919 107.717 38.9841C107.686 39.0449 107.621 39.084 107.556 39.084" fill="#F8F9FA"/>
<path d="M4.91806 31.2742H12.6239C12.7411 30.4272 12.8584 29.5801 12.98 28.7244H5.2699C5.15262 29.5758 5.03534 30.4098 4.91806 31.2742ZM1.91655 25.7359C1.91655 25.7359 12.7629 25.6143 13.3449 25.5839C13.3971 25.08 13.4492 24.4936 13.51 23.9202H2.12504C2.26404 22.6388 2.39435 21.4182 2.529 20.189H17.958C17.958 20.354 17.3933 25.4796 17.3498 25.9401C17.3281 26.179 17.3151 26.4222 17.2804 26.6611C17.2673 26.7393 17.2108 26.8262 17.1544 26.8783C16.9936 27.013 16.8199 27.1303 16.6331 27.2693C16.733 27.4213 16.8156 27.5994 16.9459 27.7167C17.1761 27.9252 17.1153 28.1814 17.0936 28.4247C17.0545 28.8851 16.5593 33.6415 16.4854 33.8283C16.4116 34.0107 16.2769 34.2062 16.1119 34.2974C15.6949 34.5363 15.2475 34.6449 14.7392 34.6406C10.2913 34.6232 1.13031 34.6362 1 34.6406C1 34.4364 1.91655 25.7403 1.91655 25.7403" fill="#D01026"/>
<path d="M84.5749 23.7249L75.136 23.7119L74.8927 25.9619C74.8927 25.9619 78.0072 25.9793 79.4754 25.9793C79.4146 26.9002 79.3581 27.795 79.2973 28.7072H74.5973L74.315 31.3482C74.315 31.3482 76.6737 31.3482 77.8248 31.3482C79.3364 31.3482 83.6758 31.3568 83.6758 31.3568C83.6758 31.3568 83.5541 32.1995 83.4846 32.6078C83.7409 32.382 88.6581 27.6473 89.3921 26.9349C89.4443 26.8871 89.4573 26.7221 89.4139 26.6613C89.0229 26.127 84.8616 20.7842 84.8616 20.7842L84.5749 23.7249ZM74.6582 41.2128C75.0708 40.7828 78.0463 37.8811 79.0019 36.9559C79.7794 36.2045 80.5657 35.4617 81.3519 34.7146C81.4214 34.6494 81.4822 34.5712 81.6168 34.4279C77.512 34.48 73.494 34.5321 69.3936 34.5886C69.9105 29.7627 70.4274 24.9759 70.9399 20.1717C72.0345 20.1717 84.4055 20.1891 84.4055 20.1891L84.1536 19.8068H84.879C86.3081 19.8068 87.7372 19.8155 89.1663 19.7981C89.4225 19.7981 89.5746 19.8894 89.7049 20.0762C90.5606 21.3272 91.4163 22.5825 92.272 23.8335C92.3459 23.9377 92.4284 24.0376 92.511 24.1506C93.1712 23.6163 93.8097 23.0777 94.4743 22.5651C95.4082 21.8397 96.3595 21.136 97.2977 20.4236C98.527 19.4941 99.752 18.5602 100.981 17.6306C101.985 16.8705 102.992 16.1103 104 15.3502C104.791 14.7551 105.581 14.1556 106.376 13.5649C106.459 13.5041 106.572 13.4563 106.672 13.4563C109.712 13.4563 112.753 13.4563 115.793 13.4563C115.832 13.4563 115.867 13.4563 115.98 13.465C115.537 13.7604 115.159 14.0253 114.768 14.2729C113.739 14.9375 112.701 15.5891 111.671 16.2537C109.365 17.7349 107.058 19.2204 104.756 20.706C102.949 21.8745 101.142 23.0473 99.3349 24.2201C97.7365 25.2539 96.1249 26.2703 94.5438 27.3302C92.4849 28.7158 90.4433 30.1319 88.4018 31.5436C87.1073 32.4428 85.8259 33.3593 84.5402 34.2715C82.5421 35.6832 80.5483 37.0906 78.5545 38.5023C77.2992 39.3928 74.7016 41.1954 74.6625 41.2171" fill="#D01026"/>
<path d="M19.9605 25.736C23.809 25.6839 27.4187 25.6361 31.2064 25.5796C31.2585 25.0193 31.3063 24.4719 31.3584 23.8899H20.1559C20.3775 22.5477 20.3297 21.5008 20.5512 20.1803C21.876 20.1803 34.5077 20.163 35.0941 20.1803C35.6066 20.1977 35.8846 20.441 35.8281 20.9492C35.789 21.2793 35.3416 26.0096 35.207 26.8827C35.0593 27.834 34.6814 28.3466 33.539 28.5724C33.0525 28.668 32.5573 28.7071 32.0665 28.7462C31.858 28.7636 31.6495 28.7766 31.441 28.7766C31.3367 28.7766 31.2325 28.7766 31.1239 28.7722C31.0761 28.7722 30.8198 28.7983 30.7938 28.7722C32.3575 30.627 35.4806 34.6189 35.4806 34.6189C35.4806 34.6189 31.2629 34.5929 29.5428 34.6189C29.3386 34.6189 29.2604 34.4712 29.1779 34.3235C28.4655 33.1073 27.7662 31.8867 27.0234 30.6922C26.6715 30.1232 26.2589 29.5715 25.6117 29.2892C25.0557 29.0502 23.6005 29.072 23.4224 29.072C23.2139 30.905 22.988 32.7859 22.7795 34.6189H19.0005C19.3132 31.6825 19.639 28.6854 19.9518 25.7447" fill="#D01026"/>
<path d="M56.8779 26.2966C56.8258 26.6788 56.07 33.6114 55.9571 34.415C55.9484 34.4888 55.8224 34.6061 55.7486 34.6061C54.6062 34.6191 53.4594 34.6148 52.2432 34.6148C52.7601 29.8019 53.2726 24.9717 53.7895 20.1719C55.097 20.1719 56.3654 20.1719 57.6294 20.1762C57.6902 20.1762 57.7684 20.2283 57.8118 20.2805C58.3982 21.0189 64.3448 28.6335 64.3448 28.6335L65.3004 20.1849C65.3004 20.1849 67.9023 20.1936 69.2228 20.1936C69.2011 20.5802 67.9588 34.2369 67.9328 34.6105C67.7807 34.6105 64.5055 34.6148 62.9939 34.6018C62.8549 34.6018 62.6595 34.5279 62.5856 34.4237C61.3607 32.7079 60.1575 30.94 58.9412 29.2199C58.3157 28.3294 56.9214 26.3183 56.8692 26.2922" fill="#D01026"/>
<path d="M49.3756 34.6191H35.6494C36.1663 29.8063 36.6832 25.0065 37.2001 20.1719H37.5303C38.4207 20.1719 50.1358 20.1893 51.1392 20.1893C51.0827 21.0406 50.8916 22.9779 50.8612 23.4644C50.8438 23.6946 50.796 23.7728 50.5658 23.7641C49.7579 23.7337 41.3745 23.686 41.3745 23.686L41.1312 25.9577C41.1312 25.9577 44.3108 25.9795 45.8138 25.9795C45.7486 26.9047 45.6096 27.7821 45.5488 28.7073H40.8358L40.5665 31.2875H49.7405L49.3713 34.6235L49.3756 34.6191Z" fill="#D01026"/>
<path d="M96.7968 29.2421C96.7968 29.2421 99.529 33.0168 100.915 34.9368H100.311C98.9339 34.9368 97.5526 34.9151 96.1757 34.9541C95.6979 34.9715 95.4242 34.7847 95.1549 34.4329C94.3469 33.3861 93.513 32.3566 92.6963 31.3184C92.3271 30.845 91.9796 30.3585 91.6147 29.8676C92.8831 29.038 94.1471 28.217 95.4329 27.3787C95.6588 27.6871 95.8933 27.9781 96.0931 28.2822C96.2017 28.4429 96.7925 29.2421 96.7925 29.2421" fill="#D01026"/>
<path d="M34.2295 15.6503C34.2295 15.1682 34.1166 14.6252 33.8256 14.256C33.7256 14.1257 33.5997 14.0171 33.4607 13.9345C32.9959 13.6609 32.4095 13.6218 31.9013 13.7869C31.5017 13.9172 31.1455 14.1908 30.9587 14.5774C30.9239 14.6513 30.8979 14.7295 30.8762 14.8076C30.7372 15.3463 30.6981 15.95 30.8805 16.48C31.2367 17.5225 32.5702 17.8048 33.4563 17.2792C34.0123 16.9491 34.2252 16.2671 34.2252 15.6503M32.4747 18.7822C32.1793 18.7908 31.8839 18.7735 31.5929 18.7083C30.3723 18.4477 29.2516 17.5138 29.0257 16.2367C28.7781 14.825 29.5122 13.4481 30.8153 12.8703C31.4582 12.5836 32.1749 12.4837 32.8743 12.5141C34.16 12.5706 35.4631 13.3438 35.828 14.6382C36.2016 15.9674 35.7281 17.3444 34.5857 18.1349C34.273 18.3521 33.9168 18.5042 33.5475 18.6041C33.1957 18.6996 32.8352 18.7648 32.4747 18.7778" fill="#D01026"/>
<path d="M6.40363 17.5432V16.3182H5.04403V15.1628H8.01081C8.02385 15.228 8.04557 15.2844 8.04557 15.3409C8.04557 16.227 8.05425 17.1088 8.03688 17.9949C8.03688 18.1035 7.9283 18.2729 7.83708 18.3033C7.00743 18.5726 6.22555 18.7855 5.33943 18.7681C4.48371 18.7464 3.64101 18.5422 2.93298 18.0427C2.22061 17.5388 1.86878 16.8351 1.80362 15.9881C1.69937 14.6198 2.29881 13.5991 3.49334 12.9953C4.38815 12.5392 5.4176 12.4871 6.40363 12.5522C6.86841 12.5826 7.32885 12.6521 7.79363 12.7086V14.0421C7.40703 13.9335 7.03781 13.7815 6.65122 13.725C5.8346 13.6078 5.03969 13.5991 4.28388 14.0682C3.64969 14.4635 3.47162 15.254 3.57153 15.9534C3.69315 16.783 4.12752 17.3564 4.97454 17.5128C5.12658 17.5388 6.40363 17.617 6.40363 17.5562" fill="#D01026"/>
<path d="M11.099 15.2243C11.4378 15.2243 11.7419 15.233 12.0459 15.2243C12.3978 15.2069 12.754 14.8985 12.8104 14.5467C12.8626 14.2078 12.6628 13.8343 12.337 13.717C11.946 13.5737 11.5073 13.6041 11.099 13.6432V15.2243ZM11.0903 16.3276V18.6037H9.41797V12.5138C9.41797 12.5138 11.4465 12.5312 11.6202 12.5355C12.2153 12.5529 12.8061 12.6137 13.3882 12.7527C13.9789 12.896 14.3612 13.3044 14.4784 13.8994C14.6131 14.5858 14.3785 15.1548 13.7965 15.5501C13.5749 15.7021 13.3187 15.8063 13.0884 15.928C13.4707 16.1712 14.6652 17.874 15.2864 18.6211C14.7477 18.6211 14.2091 18.6341 13.6748 18.6124C13.5619 18.6081 13.4272 18.4908 13.3534 18.3909C12.9147 17.8088 12.4977 17.2094 12.0546 16.636C11.8244 16.3406 11.4856 16.2581 11.0903 16.3232" fill="#D01026"/>
<path d="M15.904 12.5441H17.4678V12.8785C17.4678 13.8472 17.4591 14.8115 17.4722 15.7801C17.4765 16.119 17.5156 16.4665 17.6025 16.7922C17.7024 17.1745 17.976 17.4308 18.3756 17.5046C18.7535 17.5785 19.1792 17.5785 19.5311 17.4004C19.9307 17.2006 20.0958 16.7792 20.1479 16.3579C20.2 15.9192 20.1609 15.4761 20.1609 15.033C20.1609 14.3901 20.1609 13.7516 20.1609 13.1087V12.5528H21.7724C21.7768 12.6483 21.7855 12.7395 21.7855 12.8264C21.7855 13.9558 21.8029 15.0851 21.7768 16.2145C21.7638 16.7445 21.6552 17.2657 21.3294 17.7131C20.6518 18.6557 19.3269 18.8686 18.2453 18.7469C17.8631 18.7035 17.4852 18.5949 17.1464 18.4211C16.3298 18.0041 15.9171 17.2961 15.904 16.3839C15.8867 15.2242 15.8997 14.0644 15.8997 12.9046V12.5441H15.904Z" fill="#D01026"/>
<path d="M24.9732 13.5518V15.4804C25.4988 15.4804 26.2937 15.5933 26.6064 15.0764C26.8193 14.7289 26.841 14.2207 26.5673 13.8993C26.2068 13.4736 25.2468 13.5605 24.9732 13.5561M24.9471 16.5533V18.6079H23.2227V12.5397C23.6092 12.5353 24.0002 12.531 24.3868 12.531C24.8646 12.531 25.338 12.5353 25.8115 12.5657C26.2719 12.5962 26.7584 12.6309 27.2015 12.7699C27.3318 12.809 27.4578 12.8611 27.5751 12.935C28.5785 13.5344 28.7131 15.0851 27.8531 15.867C27.7401 15.9712 27.6142 16.0581 27.4795 16.1363C26.9409 16.4447 26.3632 16.549 25.7594 16.5533C25.4988 16.5533 25.2381 16.5533 24.9428 16.5533" fill="#D01026"/>
<path d="M132.81 6.15884C133.11 6.15884 133.283 6.02419 133.283 5.78094C133.283 5.56809 133.162 5.41606 132.832 5.41606H132.523V6.15884H132.81ZM132.067 5.03381H132.91C133.375 5.03381 133.783 5.22059 133.783 5.75487C133.783 6.01984 133.618 6.27613 133.362 6.36734L133.87 7.28821H133.362L132.975 6.51068H132.523V7.28821H132.071V5.03381H132.067ZM134.513 6.18925C134.513 5.14675 133.805 4.39963 132.875 4.39963C131.945 4.39963 131.229 5.14241 131.229 6.18925C131.229 7.23609 131.95 7.96584 132.875 7.96584C133.8 7.96584 134.513 7.24478 134.513 6.18925ZM130.786 6.18925C130.786 4.89047 131.724 4 132.875 4C134.026 4 134.956 4.89047 134.956 6.18925C134.956 7.48803 134.017 8.3785 132.875 8.3785C131.733 8.3785 130.786 7.48803 130.786 6.18925Z" fill="white" fill-opacity="0.1"/>
</svg>
